<!DOCTYPE svg PUBLIC "-//W3C//DTD SVG 1.1//EN" "http://www.w3.org/Graphics/SVG/1.1/DTD/svg11.dtd">
<!-- Uploaded to: SVG Repo, www.svgrepo.com, Transformed by: SVG Repo Mixer Tools -->
<svg version="1.1" id="Capa_1" xmlns="http://www.w3.org/2000/svg" xmlns:xlink="http://www.w3.org/1999/xlink" width="800px" height="800px" viewBox="0 0 518.389 518.389" xml:space="preserve" fill="Blue" stroke="Blue">
<g id="SVGRepo_bgCarrier" stroke-width="0"/>
<g id="SVGRepo_tracerCarrier" stroke-linecap="round" stroke-linejoin="round"/>
<g id="SVGRepo_iconCarrier"> <g> <g> <path style="fill:#030303;" d="M291.973,459.331c-10.476,0-18.995-8.514-18.995-18.989V293.634 c-3.488,3.254-8.097,5.077-12.939,5.077l0,0c-4.452,0-8.783-1.578-12.197-4.437c-8.028-6.747-9.077-18.755-2.341-26.772 l32.795-38.911c0.184-0.251,0.801-0.837,1.452-1.384c0.372-0.326,0.698-0.6,1.035-0.852c0.801-0.569,1.544-1.009,2.316-1.412 c0.343-0.206,0.691-0.397,1.08-0.575c0.921-0.415,1.858-0.715,2.797-0.972c0.297-0.1,0.605-0.191,0.914-0.263 c2.803-0.615,5.369-0.609,8.092-0.023l1.012,0.286c0.897,0.24,1.841,0.546,2.744,0.943c0.458,0.218,0.807,0.403,1.145,0.604 c0.766,0.403,1.521,0.849,2.229,1.369c0.406,0.301,0.731,0.575,1.052,0.855c0.698,0.58,1.339,1.189,1.922,1.838l32.375,38.508 c3.271,3.877,4.814,8.806,4.375,13.86c-0.44,5.056-2.819,9.641-6.708,12.895c-7.159,5.998-18.435,5.598-25.147-0.635v146.713 C310.957,450.817,302.437,459.331,291.973,459.331z M284.689,261.694v178.647c0,4.02,3.271,7.279,7.284,7.279 c4.009,0,7.273-3.271,7.273-7.279V261.682l19.063,22.712c1.384,1.658,3.432,2.607,5.593,2.607c1.2,0,2.996-0.304,4.683-1.704 c1.481-1.252,2.396-3.008,2.567-4.951c0.166-1.939-0.435-3.82-1.681-5.318l-32.084-38.156c-0.269-0.306-0.475-0.486-0.681-0.657 l3.03-5.112l-3.567,4.638c-0.188-0.135-0.464-0.28-0.743-0.432l-0.618-0.352c-0.183-0.077-0.543-0.168-0.903-0.269l-0.651-0.2 c-0.538-0.105-1.784-0.157-2.802,0.066l-0.43,0.146c-0.291,0.08-0.663,0.174-1.012,0.326c-0.755,0.429-1.052,0.6-1.332,0.792 c-0.635,0.557-0.853,0.754-1.059,0.978l-0.451,0.463l-31.695,37.765c-2.582,3.076-2.185,7.691,0.895,10.275 c1.675,1.4,3.468,1.704,4.674,1.704l0,0c2.167,0,4.197-0.949,5.587-2.607L284.689,261.694z"/> </g> <g> <path style="fill:#030303;" d="M232.26,384.997c-31.238,0-60.328-12.18-82.319-34.383c-11.079,3.392-22.432,5.106-33.808,5.106 C52.094,355.72,0,303.629,0,239.593c0-61.82,49.33-113.076,110.712-115.927c19.538-39.372,59.956-64.608,103.976-64.608 c30.36,0,58.77,11.536,80.543,32.595c18.584-11.762,39.89-17.957,61.961-17.957c53.109,0,98.956,35.589,112.279,86.822 c30.671,21.803,48.917,57.034,48.917,94.69c0,64.03-52.097,116.127-116.127,116.127c-20.922,0-41.501-5.724-59.57-16.57 c-5.203-0.646-10.464-1.693-15.69-3.082l-4.334-1.167v-39.694l5.112-0.652c5.844-0.743,11.333-3.145,15.85-6.93 c6.272-5.272,10.127-12.677,10.848-20.848c0.715-8.172-1.802-16.137-7.067-22.415l-33.308-39.537 c-0.938-0.926-1.572-1.516-2.127-1.973c-0.743-0.655-1.361-1.161-1.944-1.581c-1.063-0.778-2.167-1.464-3.391-2.122 c-0.652-0.366-1.184-0.649-1.744-0.917l-0.44-0.206c-1.401-0.626-2.75-1.066-3.939-1.398l-2.059-0.563 c-4.334-0.941-8.657-0.941-13.049,0.005c-0.583,0.128-1.166,0.294-1.761,0.475c-1.224,0.352-2.625,0.792-4.197,1.487l-0.526,0.246 c-0.491,0.234-1.023,0.523-1.566,0.837c-1.229,0.669-2.287,1.318-3.214,1.979c-0.754,0.535-1.429,1.083-2.059,1.624 c-0.605,0.526-1.2,1.069-1.841,1.716l-1.927,2.035l-31.801,37.894c-10.884,12.969-9.18,32.387,3.794,43.291 c4.503,3.769,9.983,6.164,15.839,6.925l5.106,0.657v70.577l-4.621,0.973C248.608,384.127,240.411,384.997,232.26,384.997z M153.326,337.154l2.582,2.773c20.03,21.511,47.148,33.358,76.347,33.358c5.767,0,11.57-0.485,17.297-1.452v-51.016 c-6.144-1.578-11.862-4.495-16.76-8.589c-17.929-15.066-20.276-41.885-5.24-59.79l34.717-40.961 c0.563-0.586,1.355-1.312,2.173-2.016c0.897-0.772,1.87-1.564,2.916-2.302c1.27-0.912,2.756-1.833,4.317-2.676 c0.663-0.386,1.452-0.807,2.271-1.201l0.68-0.314c2.379-1.055,4.38-1.669,5.695-2.044c0.761-0.24,1.652-0.48,2.585-0.687 c6.072-1.323,12.099-1.309,18.034-0.017l2.99,0.803c1.836,0.515,3.62,1.158,5.387,1.95l0.601,0.274 c0.875,0.429,1.635,0.832,2.379,1.252c1.589,0.849,3.139,1.821,4.626,2.905c0.84,0.604,1.749,1.347,2.652,2.139 c0.669,0.555,1.607,1.403,2.557,2.358l1.074,1.012l33.182,39.529c7.279,8.671,10.756,19.679,9.767,30.966 s-6.307,21.511-14.987,28.784c-4.905,4.117-10.629,7.045-16.776,8.617v20.613c3.66,0.829,7.319,1.452,10.933,1.858l1.293,0.143 l1.109,0.687c16.496,10.138,35.354,15.502,54.544,15.502c57.574,0,104.417-46.843,104.417-104.417 c0-34.534-17.068-66.804-45.664-86.308l-1.864-1.275l-0.526-2.195c-11.299-47.116-53.006-80.029-101.432-80.029 c-21.312,0-41.851,6.43-59.404,18.595l-4.111,2.859l-3.46-3.631c-19.95-20.934-46.773-32.461-75.535-32.461 c-40.675,0-77.928,23.97-94.908,61.077l-1.541,3.359l-3.693,0.061C57.843,136.109,11.71,182.914,11.71,239.593 c0,57.575,46.842,104.417,104.417,104.417c11.324,0,22.632-1.898,33.61-5.633L153.326,337.154z"/> </g> </g> </g>
</svg>